<mxfile host="Electron" modified="2024-05-03T03:22:13.926Z" agent="Mozilla/5.0 (Macintosh; Intel Mac OS X 10_15_7) AppleWebKit/537.36 (KHTML, like Gecko) draw.io/24.2.5 Chrome/120.0.6099.109 Electron/28.1.0 Safari/537.36" etag="yYKX3FIrDVVUFnvAkyge" version="24.2.5" type="device">
  <diagram name="Page-1" id="iQtPVHlDbdOmgOGiwf9m">
    <mxGraphModel dx="1224" dy="868" grid="1" gridSize="10" guides="1" tooltips="1" connect="1" arrows="1" fold="1" page="1" pageScale="1" pageWidth="850" pageHeight="1100" math="0" shadow="0">
      <root>
        <mxCell id="0" />
        <mxCell id="1" parent="0" />
        <mxCell id="Ut9AmTCjx2MWgpXYWmbQ-1" value="Prisma Cloud" style="ellipse;shape=cloud;whiteSpace=wrap;html=1;sketch=1;hachureGap=4;jiggle=2;curveFitting=1;fontFamily=Architects Daughter;fontSource=https%3A%2F%2Ffonts.googleapis.com%2Fcss%3Ffamily%3DArchitects%2BDaughter;fontSize=16;fillColor=#b1ddf0;strokeColor=#10739e;" vertex="1" parent="1">
          <mxGeometry x="418.75" y="160" width="180" height="110" as="geometry" />
        </mxCell>
        <mxCell id="Ut9AmTCjx2MWgpXYWmbQ-10" style="edgeStyle=orthogonalEdgeStyle;rounded=0;sketch=1;hachureGap=4;jiggle=2;curveFitting=1;orthogonalLoop=1;jettySize=auto;html=1;exitX=0.31;exitY=0.8;exitDx=0;exitDy=0;exitPerimeter=0;fontFamily=Architects Daughter;fontSource=https%3A%2F%2Ffonts.googleapis.com%2Fcss%3Ffamily%3DArchitects%2BDaughter;curved=1;" edge="1" parent="1" source="Ut9AmTCjx2MWgpXYWmbQ-2" target="Ut9AmTCjx2MWgpXYWmbQ-4">
          <mxGeometry relative="1" as="geometry" />
        </mxCell>
        <mxCell id="Ut9AmTCjx2MWgpXYWmbQ-12" style="edgeStyle=orthogonalEdgeStyle;curved=1;rounded=0;sketch=1;hachureGap=4;jiggle=2;curveFitting=1;orthogonalLoop=1;jettySize=auto;html=1;exitX=0.96;exitY=0.7;exitDx=0;exitDy=0;exitPerimeter=0;strokeColor=default;align=center;verticalAlign=middle;fontFamily=Architects Daughter;fontSource=https%3A%2F%2Ffonts.googleapis.com%2Fcss%3Ffamily%3DArchitects%2BDaughter;fontSize=11;fontColor=default;labelBackgroundColor=default;endArrow=classic;entryX=0.547;entryY=-0.048;entryDx=0;entryDy=0;entryPerimeter=0;" edge="1" parent="1" source="Ut9AmTCjx2MWgpXYWmbQ-2" target="Ut9AmTCjx2MWgpXYWmbQ-15">
          <mxGeometry relative="1" as="geometry">
            <mxPoint x="730" y="480" as="targetPoint" />
          </mxGeometry>
        </mxCell>
        <mxCell id="Ut9AmTCjx2MWgpXYWmbQ-2" value="Cloud Workload&lt;div&gt;Protection&lt;/div&gt;&lt;div&gt;Platform&lt;/div&gt;" style="ellipse;shape=cloud;whiteSpace=wrap;html=1;sketch=1;hachureGap=4;jiggle=2;curveFitting=1;fontFamily=Architects Daughter;fontSource=https%3A%2F%2Ffonts.googleapis.com%2Fcss%3Ffamily%3DArchitects%2BDaughter;fontSize=16;fillColor=#fad7ac;strokeColor=#b46504;" vertex="1" parent="1">
          <mxGeometry x="318.75" y="220" width="210" height="130" as="geometry" />
        </mxCell>
        <mxCell id="Ut9AmTCjx2MWgpXYWmbQ-23" value="Registry Image Scanning" style="edgeStyle=orthogonalEdgeStyle;curved=1;rounded=0;hachureGap=4;orthogonalLoop=1;jettySize=auto;html=1;exitX=0.5;exitY=1;exitDx=0;exitDy=0;exitPerimeter=0;strokeColor=#FF00FF;strokeWidth=2;align=center;verticalAlign=middle;fontFamily=Architects Daughter;fontSource=https%3A%2F%2Ffonts.googleapis.com%2Fcss%3Ffamily%3DArchitects%2BDaughter;fontSize=14;fontColor=default;labelBackgroundColor=default;endArrow=classic;flowAnimation=1;startArrow=classic;startFill=1;" edge="1" parent="1" source="Ut9AmTCjx2MWgpXYWmbQ-3" target="Ut9AmTCjx2MWgpXYWmbQ-13">
          <mxGeometry relative="1" as="geometry" />
        </mxCell>
        <mxCell id="Ut9AmTCjx2MWgpXYWmbQ-3" value="Container&lt;div&gt;Image&lt;/div&gt;&lt;div&gt;Registry&lt;/div&gt;" style="shape=cylinder3;whiteSpace=wrap;html=1;boundedLbl=1;backgroundOutline=1;size=15;sketch=1;hachureGap=4;jiggle=2;curveFitting=1;fontFamily=Architects Daughter;fontSource=https%3A%2F%2Ffonts.googleapis.com%2Fcss%3Ffamily%3DArchitects%2BDaughter;fontSize=16;fillColor=#f5f5f5;strokeColor=#666666;fontColor=#333333;" vertex="1" parent="1">
          <mxGeometry x="407.5" y="445" width="110" height="130" as="geometry" />
        </mxCell>
        <mxCell id="Ut9AmTCjx2MWgpXYWmbQ-17" value="Image Build&lt;div style=&quot;font-size: 14px;&quot;&gt;Stage&lt;/div&gt;" style="edgeStyle=orthogonalEdgeStyle;curved=1;rounded=0;hachureGap=4;orthogonalLoop=1;jettySize=auto;html=1;exitX=0;exitY=0.5;exitDx=0;exitDy=0;entryX=0;entryY=0.5;entryDx=0;entryDy=0;strokeColor=#7F00FF;align=center;verticalAlign=middle;fontFamily=Architects Daughter;fontSource=https%3A%2F%2Ffonts.googleapis.com%2Fcss%3Ffamily%3DArchitects%2BDaughter;fontSize=14;fontColor=default;labelBackgroundColor=default;endArrow=classic;flowAnimation=1;strokeWidth=2;" edge="1" parent="1" source="Ut9AmTCjx2MWgpXYWmbQ-4" target="Ut9AmTCjx2MWgpXYWmbQ-6">
          <mxGeometry relative="1" as="geometry">
            <Array as="points">
              <mxPoint x="80" y="465" />
              <mxPoint x="80" y="540" />
            </Array>
          </mxGeometry>
        </mxCell>
        <mxCell id="Ut9AmTCjx2MWgpXYWmbQ-4" value="CI / CD Pipeline" style="rounded=0;whiteSpace=wrap;html=1;sketch=1;hachureGap=4;jiggle=2;curveFitting=1;fontFamily=Architects Daughter;fontSource=https%3A%2F%2Ffonts.googleapis.com%2Fcss%3Ffamily%3DArchitects%2BDaughter;fontSize=16;fillColor=#d0cee2;strokeColor=#56517e;" vertex="1" parent="1">
          <mxGeometry x="120" y="435" width="170" height="60" as="geometry" />
        </mxCell>
        <mxCell id="Ut9AmTCjx2MWgpXYWmbQ-18" value="Build Time Image Scanning" style="edgeStyle=orthogonalEdgeStyle;curved=1;rounded=0;hachureGap=4;orthogonalLoop=1;jettySize=auto;html=1;exitX=0.5;exitY=1;exitDx=0;exitDy=0;entryX=0.5;entryY=0;entryDx=0;entryDy=0;strokeColor=#FF00FF;strokeWidth=2;align=center;verticalAlign=middle;fontFamily=Architects Daughter;fontSource=https%3A%2F%2Ffonts.googleapis.com%2Fcss%3Ffamily%3DArchitects%2BDaughter;fontSize=14;fontColor=default;labelBackgroundColor=default;endArrow=classic;flowAnimation=1;startArrow=classic;startFill=1;" edge="1" parent="1" source="Ut9AmTCjx2MWgpXYWmbQ-6" target="Ut9AmTCjx2MWgpXYWmbQ-8">
          <mxGeometry x="0.1034" relative="1" as="geometry">
            <mxPoint x="160" y="580" as="sourcePoint" />
            <mxPoint as="offset" />
          </mxGeometry>
        </mxCell>
        <mxCell id="Ut9AmTCjx2MWgpXYWmbQ-21" style="edgeStyle=orthogonalEdgeStyle;curved=1;rounded=0;hachureGap=4;orthogonalLoop=1;jettySize=auto;html=1;exitX=0.75;exitY=1;exitDx=0;exitDy=0;entryX=0.25;entryY=1;entryDx=0;entryDy=0;strokeColor=#7F00FF;strokeWidth=2;align=center;verticalAlign=middle;fontFamily=Architects Daughter;fontSource=https%3A%2F%2Ffonts.googleapis.com%2Fcss%3Ffamily%3DArchitects%2BDaughter;fontSize=14;fontColor=default;labelBackgroundColor=default;endArrow=classic;flowAnimation=1;" edge="1" parent="1" source="Ut9AmTCjx2MWgpXYWmbQ-6" target="Ut9AmTCjx2MWgpXYWmbQ-20">
          <mxGeometry relative="1" as="geometry" />
        </mxCell>
        <mxCell id="Ut9AmTCjx2MWgpXYWmbQ-6" value="Docker Build" style="rounded=0;whiteSpace=wrap;html=1;sketch=1;hachureGap=4;jiggle=2;curveFitting=1;fontFamily=Architects Daughter;fontSource=https%3A%2F%2Ffonts.googleapis.com%2Fcss%3Ffamily%3DArchitects%2BDaughter;fontSize=16;fillColor=#d0cee2;strokeColor=#56517e;" vertex="1" parent="1">
          <mxGeometry x="120" y="510" width="80" height="60" as="geometry" />
        </mxCell>
        <mxCell id="Ut9AmTCjx2MWgpXYWmbQ-31" value="Option 1" style="edgeStyle=orthogonalEdgeStyle;curved=1;rounded=0;hachureGap=4;orthogonalLoop=1;jettySize=auto;html=1;strokeColor=#000000;strokeWidth=2;align=center;verticalAlign=middle;fontFamily=Architects Daughter;fontSource=https%3A%2F%2Ffonts.googleapis.com%2Fcss%3Ffamily%3DArchitects%2BDaughter;fontSize=14;fontColor=default;labelBackgroundColor=default;endArrow=classic;flowAnimation=1;" edge="1" parent="1" source="Ut9AmTCjx2MWgpXYWmbQ-8" target="Ut9AmTCjx2MWgpXYWmbQ-26">
          <mxGeometry relative="1" as="geometry" />
        </mxCell>
        <mxCell id="Ut9AmTCjx2MWgpXYWmbQ-32" value="Option 2" style="edgeStyle=orthogonalEdgeStyle;curved=1;rounded=0;hachureGap=4;orthogonalLoop=1;jettySize=auto;html=1;exitX=0.75;exitY=1;exitDx=0;exitDy=0;entryX=0.75;entryY=0;entryDx=0;entryDy=0;strokeColor=#000000;strokeWidth=2;align=center;verticalAlign=middle;fontFamily=Architects Daughter;fontSource=https%3A%2F%2Ffonts.googleapis.com%2Fcss%3Ffamily%3DArchitects%2BDaughter;fontSize=14;fontColor=default;labelBackgroundColor=default;endArrow=classic;flowAnimation=1;" edge="1" parent="1" source="Ut9AmTCjx2MWgpXYWmbQ-8" target="Ut9AmTCjx2MWgpXYWmbQ-27">
          <mxGeometry relative="1" as="geometry" />
        </mxCell>
        <mxCell id="Ut9AmTCjx2MWgpXYWmbQ-8" value="&lt;span style=&quot;font-size: 16px;&quot;&gt;Linux Host&lt;/span&gt;&lt;div&gt;&lt;span style=&quot;font-size: 16px;&quot;&gt;with TwistCLI&lt;/span&gt;&lt;/div&gt;" style="rounded=1;whiteSpace=wrap;html=1;sketch=1;hachureGap=4;jiggle=2;curveFitting=1;fontFamily=Architects Daughter;fontSource=https%3A%2F%2Ffonts.googleapis.com%2Fcss%3Ffamily%3DArchitects%2BDaughter;fillColor=#dae8fc;gradientColor=#7ea6e0;strokeColor=#6c8ebf;" vertex="1" parent="1">
          <mxGeometry x="125" y="670" width="160" height="60" as="geometry" />
        </mxCell>
        <mxCell id="Ut9AmTCjx2MWgpXYWmbQ-11" style="edgeStyle=orthogonalEdgeStyle;curved=1;rounded=0;sketch=1;hachureGap=4;jiggle=2;curveFitting=1;orthogonalLoop=1;jettySize=auto;html=1;exitX=0.8;exitY=0.8;exitDx=0;exitDy=0;exitPerimeter=0;entryX=0.5;entryY=0;entryDx=0;entryDy=0;entryPerimeter=0;strokeColor=default;align=center;verticalAlign=middle;fontFamily=Architects Daughter;fontSource=https%3A%2F%2Ffonts.googleapis.com%2Fcss%3Ffamily%3DArchitects%2BDaughter;fontSize=11;fontColor=default;labelBackgroundColor=default;endArrow=classic;" edge="1" parent="1" source="Ut9AmTCjx2MWgpXYWmbQ-2" target="Ut9AmTCjx2MWgpXYWmbQ-3">
          <mxGeometry relative="1" as="geometry" />
        </mxCell>
        <mxCell id="Ut9AmTCjx2MWgpXYWmbQ-33" style="edgeStyle=orthogonalEdgeStyle;curved=1;rounded=0;hachureGap=4;orthogonalLoop=1;jettySize=auto;html=1;entryX=0.5;entryY=0;entryDx=0;entryDy=0;strokeColor=#000000;strokeWidth=2;align=center;verticalAlign=middle;fontFamily=Architects Daughter;fontSource=https%3A%2F%2Ffonts.googleapis.com%2Fcss%3Ffamily%3DArchitects%2BDaughter;fontSize=14;fontColor=default;labelBackgroundColor=default;endArrow=classic;flowAnimation=1;" edge="1" parent="1" source="Ut9AmTCjx2MWgpXYWmbQ-13" target="Ut9AmTCjx2MWgpXYWmbQ-29">
          <mxGeometry relative="1" as="geometry" />
        </mxCell>
        <mxCell id="Ut9AmTCjx2MWgpXYWmbQ-13" value="&lt;span style=&quot;font-size: 16px;&quot;&gt;Linux Host&lt;/span&gt;&lt;div&gt;&lt;span style=&quot;font-size: 16px;&quot;&gt;with Defender Agent&lt;/span&gt;&lt;/div&gt;" style="rounded=1;whiteSpace=wrap;html=1;sketch=1;hachureGap=4;jiggle=2;curveFitting=1;fontFamily=Architects Daughter;fontSource=https%3A%2F%2Ffonts.googleapis.com%2Fcss%3Ffamily%3DArchitects%2BDaughter;fillColor=#fff2cc;gradientColor=#ffd966;strokeColor=#d6b656;" vertex="1" parent="1">
          <mxGeometry x="370" y="670" width="185" height="60" as="geometry" />
        </mxCell>
        <mxCell id="Ut9AmTCjx2MWgpXYWmbQ-34" value="Dynamic" style="edgeStyle=orthogonalEdgeStyle;curved=1;rounded=0;hachureGap=4;orthogonalLoop=1;jettySize=auto;html=1;entryX=0.5;entryY=0;entryDx=0;entryDy=0;strokeColor=#000000;strokeWidth=2;align=center;verticalAlign=middle;fontFamily=Architects Daughter;fontSource=https%3A%2F%2Ffonts.googleapis.com%2Fcss%3Ffamily%3DArchitects%2BDaughter;fontSize=14;fontColor=default;labelBackgroundColor=default;endArrow=classic;flowAnimation=1;" edge="1" parent="1" source="Ut9AmTCjx2MWgpXYWmbQ-14" target="Ut9AmTCjx2MWgpXYWmbQ-30">
          <mxGeometry relative="1" as="geometry" />
        </mxCell>
        <mxCell id="Ut9AmTCjx2MWgpXYWmbQ-36" value="Static" style="edgeStyle=orthogonalEdgeStyle;curved=1;rounded=0;hachureGap=4;orthogonalLoop=1;jettySize=auto;html=1;exitX=0.25;exitY=1;exitDx=0;exitDy=0;entryX=0.25;entryY=0;entryDx=0;entryDy=0;strokeColor=#000000;strokeWidth=2;align=center;verticalAlign=middle;fontFamily=Architects Daughter;fontSource=https%3A%2F%2Ffonts.googleapis.com%2Fcss%3Ffamily%3DArchitects%2BDaughter;fontSize=14;fontColor=default;labelBackgroundColor=default;endArrow=classic;flowAnimation=1;" edge="1" parent="1" source="Ut9AmTCjx2MWgpXYWmbQ-14" target="Ut9AmTCjx2MWgpXYWmbQ-35">
          <mxGeometry relative="1" as="geometry" />
        </mxCell>
        <mxCell id="Ut9AmTCjx2MWgpXYWmbQ-14" value="&lt;font style=&quot;font-size: 16px;&quot;&gt;k8s Node / Container Node&lt;/font&gt;&lt;div&gt;&lt;span style=&quot;font-size: 16px;&quot;&gt;with Defender Agent&lt;/span&gt;&lt;/div&gt;" style="rounded=1;whiteSpace=wrap;html=1;sketch=1;hachureGap=4;jiggle=2;curveFitting=1;fontFamily=Architects Daughter;fontSource=https%3A%2F%2Ffonts.googleapis.com%2Fcss%3Ffamily%3DArchitects%2BDaughter;fillColor=#ffcd28;gradientColor=#ffa500;strokeColor=#d79b00;" vertex="1" parent="1">
          <mxGeometry x="610" y="670" width="230" height="60" as="geometry" />
        </mxCell>
        <mxCell id="Ut9AmTCjx2MWgpXYWmbQ-25" value="Runtime Image&lt;div&gt;Scanning&lt;/div&gt;" style="edgeStyle=orthogonalEdgeStyle;curved=1;rounded=0;hachureGap=4;orthogonalLoop=1;jettySize=auto;html=1;exitX=0.5;exitY=0.88;exitDx=0;exitDy=0;exitPerimeter=0;strokeColor=#FF00FF;strokeWidth=2;align=center;verticalAlign=middle;fontFamily=Architects Daughter;fontSource=https%3A%2F%2Ffonts.googleapis.com%2Fcss%3Ffamily%3DArchitects%2BDaughter;fontSize=14;fontColor=default;labelBackgroundColor=default;endArrow=classic;flowAnimation=1;startArrow=classic;startFill=1;" edge="1" parent="1" source="Ut9AmTCjx2MWgpXYWmbQ-15" target="Ut9AmTCjx2MWgpXYWmbQ-14">
          <mxGeometry relative="1" as="geometry" />
        </mxCell>
        <mxCell id="Ut9AmTCjx2MWgpXYWmbQ-15" value="Running&lt;div style=&quot;font-size: 16px;&quot;&gt;Containers&lt;/div&gt;" style="strokeWidth=2;html=1;shape=mxgraph.flowchart.multi-document;whiteSpace=wrap;sketch=1;hachureGap=4;jiggle=2;curveFitting=1;fontFamily=Architects Daughter;fontSource=https%3A%2F%2Ffonts.googleapis.com%2Fcss%3Ffamily%3DArchitects%2BDaughter;fontSize=16;labelBackgroundColor=none;fillColor=#fff2cc;strokeColor=#d6b656;" vertex="1" parent="1">
          <mxGeometry x="650" y="452.5" width="150" height="115" as="geometry" />
        </mxCell>
        <mxCell id="Ut9AmTCjx2MWgpXYWmbQ-16" value="" style="shape=image;imageAspect=0;aspect=fixed;verticalLabelPosition=bottom;verticalAlign=top;sketch=1;hachureGap=4;jiggle=2;curveFitting=1;fontFamily=Architects Daughter;fontSource=https%3A%2F%2Ffonts.googleapis.com%2Fcss%3Ffamily%3DArchitects%2BDaughter;fontSize=11;fontColor=default;labelBackgroundColor=default;image=https://plugins.jetbrains.com/files/21907/522769/icon/pluginIcon.png;" vertex="1" parent="1">
          <mxGeometry x="348.75" y="120" width="100" height="100" as="geometry" />
        </mxCell>
        <mxCell id="Ut9AmTCjx2MWgpXYWmbQ-20" value="Docker Push" style="rounded=0;whiteSpace=wrap;html=1;sketch=1;hachureGap=4;jiggle=2;curveFitting=1;fontFamily=Architects Daughter;fontSource=https%3A%2F%2Ffonts.googleapis.com%2Fcss%3Ffamily%3DArchitects%2BDaughter;fontSize=16;fillColor=#d0cee2;strokeColor=#56517e;" vertex="1" parent="1">
          <mxGeometry x="210" y="510" width="80" height="60" as="geometry" />
        </mxCell>
        <mxCell id="Ut9AmTCjx2MWgpXYWmbQ-22" value="Push&lt;div&gt;Image&lt;/div&gt;" style="edgeStyle=orthogonalEdgeStyle;curved=1;rounded=0;hachureGap=4;orthogonalLoop=1;jettySize=auto;html=1;exitX=1;exitY=0.5;exitDx=0;exitDy=0;entryX=-0.05;entryY=0.504;entryDx=0;entryDy=0;entryPerimeter=0;strokeColor=#7F00FF;strokeWidth=2;align=center;verticalAlign=middle;fontFamily=Architects Daughter;fontSource=https%3A%2F%2Ffonts.googleapis.com%2Fcss%3Ffamily%3DArchitects%2BDaughter;fontSize=14;fontColor=default;labelBackgroundColor=default;endArrow=classic;flowAnimation=1;" edge="1" parent="1" source="Ut9AmTCjx2MWgpXYWmbQ-20" target="Ut9AmTCjx2MWgpXYWmbQ-3">
          <mxGeometry x="-0.1689" y="-1" relative="1" as="geometry">
            <mxPoint as="offset" />
          </mxGeometry>
        </mxCell>
        <mxCell id="Ut9AmTCjx2MWgpXYWmbQ-26" value="&lt;span style=&quot;font-size: 16px;&quot;&gt;Static Container Image&amp;nbsp;&lt;/span&gt;&lt;span style=&quot;font-size: 16px; background-color: initial;&quot;&gt;Scanning&lt;/span&gt;" style="rounded=1;whiteSpace=wrap;html=1;sketch=1;hachureGap=4;jiggle=2;curveFitting=1;fontFamily=Architects Daughter;fontSource=https%3A%2F%2Ffonts.googleapis.com%2Fcss%3Ffamily%3DArchitects%2BDaughter;fillColor=#d5e8d4;strokeColor=#82b366;" vertex="1" parent="1">
          <mxGeometry x="11.25" y="810" width="145" height="60" as="geometry" />
        </mxCell>
        <mxCell id="Ut9AmTCjx2MWgpXYWmbQ-27" value="&lt;span style=&quot;font-size: 16px;&quot;&gt;Dynamic Sandbox Scanning&lt;/span&gt;" style="rounded=1;whiteSpace=wrap;html=1;sketch=1;hachureGap=4;jiggle=2;curveFitting=1;fontFamily=Architects Daughter;fontSource=https%3A%2F%2Ffonts.googleapis.com%2Fcss%3Ffamily%3DArchitects%2BDaughter;fillColor=#d5e8d4;strokeColor=#82b366;" vertex="1" parent="1">
          <mxGeometry x="166.25" y="810" width="140" height="60" as="geometry" />
        </mxCell>
        <mxCell id="Ut9AmTCjx2MWgpXYWmbQ-29" value="&lt;span style=&quot;font-size: 16px;&quot;&gt;Scheduled / Manual Triggered&lt;/span&gt;" style="rounded=1;whiteSpace=wrap;html=1;sketch=1;hachureGap=4;jiggle=2;curveFitting=1;fontFamily=Architects Daughter;fontSource=https%3A%2F%2Ffonts.googleapis.com%2Fcss%3Ffamily%3DArchitects%2BDaughter;fillColor=#d5e8d4;strokeColor=#82b366;" vertex="1" parent="1">
          <mxGeometry x="392.5" y="810" width="140" height="60" as="geometry" />
        </mxCell>
        <mxCell id="Ut9AmTCjx2MWgpXYWmbQ-30" value="&lt;span style=&quot;font-size: 16px;&quot;&gt;Container Modelling&lt;/span&gt;" style="rounded=1;whiteSpace=wrap;html=1;sketch=1;hachureGap=4;jiggle=2;curveFitting=1;fontFamily=Architects Daughter;fontSource=https%3A%2F%2Ffonts.googleapis.com%2Fcss%3Ffamily%3DArchitects%2BDaughter;fillColor=#d5e8d4;strokeColor=#82b366;" vertex="1" parent="1">
          <mxGeometry x="748.75" y="810" width="140" height="60" as="geometry" />
        </mxCell>
        <mxCell id="Ut9AmTCjx2MWgpXYWmbQ-35" value="&lt;span style=&quot;font-size: 16px;&quot;&gt;Runtime&lt;/span&gt;&lt;div&gt;&lt;span style=&quot;font-size: 16px;&quot;&gt;Protection&lt;/span&gt;&lt;/div&gt;" style="rounded=1;whiteSpace=wrap;html=1;sketch=1;hachureGap=4;jiggle=2;curveFitting=1;fontFamily=Architects Daughter;fontSource=https%3A%2F%2Ffonts.googleapis.com%2Fcss%3Ffamily%3DArchitects%2BDaughter;fillColor=#d5e8d4;strokeColor=#82b366;" vertex="1" parent="1">
          <mxGeometry x="598.75" y="810" width="140" height="60" as="geometry" />
        </mxCell>
        <mxCell id="Ut9AmTCjx2MWgpXYWmbQ-37" value="Image&lt;div&gt;Pull&lt;/div&gt;" style="edgeStyle=orthogonalEdgeStyle;curved=1;rounded=0;hachureGap=4;orthogonalLoop=1;jettySize=auto;html=1;exitX=1;exitY=0.5;exitDx=0;exitDy=0;exitPerimeter=0;entryX=0;entryY=0.5;entryDx=0;entryDy=0;entryPerimeter=0;strokeColor=#7F00FF;strokeWidth=2;align=center;verticalAlign=middle;fontFamily=Architects Daughter;fontSource=https%3A%2F%2Ffonts.googleapis.com%2Fcss%3Ffamily%3DArchitects%2BDaughter;fontSize=14;fontColor=default;labelBackgroundColor=default;endArrow=classic;flowAnimation=1;" edge="1" parent="1" source="Ut9AmTCjx2MWgpXYWmbQ-3" target="Ut9AmTCjx2MWgpXYWmbQ-15">
          <mxGeometry relative="1" as="geometry" />
        </mxCell>
        <mxCell id="Ut9AmTCjx2MWgpXYWmbQ-38" value="" style="shape=image;imageAspect=0;aspect=fixed;verticalLabelPosition=bottom;verticalAlign=top;sketch=1;hachureGap=4;jiggle=2;curveFitting=1;fontFamily=Architects Daughter;fontSource=https%3A%2F%2Ffonts.googleapis.com%2Fcss%3Ffamily%3DArchitects%2BDaughter;fontSize=14;fontColor=default;labelBackgroundColor=default;image=https://upload.wikimedia.org/wikipedia/commons/d/d6/Linux_mascot_tux.png;" vertex="1" parent="1">
          <mxGeometry x="70" y="640" width="66" height="80" as="geometry" />
        </mxCell>
        <mxCell id="Ut9AmTCjx2MWgpXYWmbQ-39" value="" style="shape=image;imageAspect=0;aspect=fixed;verticalLabelPosition=bottom;verticalAlign=top;sketch=1;hachureGap=4;jiggle=2;curveFitting=1;fontFamily=Architects Daughter;fontSource=https%3A%2F%2Ffonts.googleapis.com%2Fcss%3Ffamily%3DArchitects%2BDaughter;fontSize=14;fontColor=default;labelBackgroundColor=default;image=https://upload.wikimedia.org/wikipedia/commons/d/d6/Linux_mascot_tux.png;" vertex="1" parent="1">
          <mxGeometry x="310" y="640" width="66" height="80" as="geometry" />
        </mxCell>
        <mxCell id="Ut9AmTCjx2MWgpXYWmbQ-40" value="" style="shape=image;imageAspect=0;aspect=fixed;verticalLabelPosition=bottom;verticalAlign=top;sketch=1;hachureGap=4;jiggle=2;curveFitting=1;fontFamily=Architects Daughter;fontSource=https%3A%2F%2Ffonts.googleapis.com%2Fcss%3Ffamily%3DArchitects%2BDaughter;fontSize=14;fontColor=default;labelBackgroundColor=default;image=https://upload.wikimedia.org/wikipedia/commons/d/d6/Linux_mascot_tux.png;" vertex="1" parent="1">
          <mxGeometry x="830" y="640" width="66" height="80" as="geometry" />
        </mxCell>
        <mxCell id="Ut9AmTCjx2MWgpXYWmbQ-41" value="" style="shape=image;imageAspect=0;aspect=fixed;verticalLabelPosition=bottom;verticalAlign=top;sketch=1;hachureGap=4;jiggle=2;curveFitting=1;fontFamily=Architects Daughter;fontSource=https%3A%2F%2Ffonts.googleapis.com%2Fcss%3Ffamily%3DArchitects%2BDaughter;fontSize=14;fontColor=default;labelBackgroundColor=default;image=https://upload.wikimedia.org/wikipedia/commons/thumb/3/39/Kubernetes_logo_without_workmark.svg/1200px-Kubernetes_logo_without_workmark.svg.png;" vertex="1" parent="1">
          <mxGeometry x="830" y="567.5" width="66.93" height="65" as="geometry" />
        </mxCell>
        <mxCell id="Ut9AmTCjx2MWgpXYWmbQ-42" value="" style="shape=image;imageAspect=0;aspect=fixed;verticalLabelPosition=bottom;verticalAlign=top;sketch=1;hachureGap=4;jiggle=2;curveFitting=1;fontFamily=Architects Daughter;fontSource=https%3A%2F%2Ffonts.googleapis.com%2Fcss%3Ffamily%3DArchitects%2BDaughter;fontSize=14;fontColor=default;labelBackgroundColor=default;image=https://upload.wikimedia.org/wikipedia/commons/c/c7/Windows_logo_-_2012.png;" vertex="1" parent="1">
          <mxGeometry x="834.0600000000001" y="495" width="54.69" height="60" as="geometry" />
        </mxCell>
      </root>
    </mxGraphModel>
  </diagram>
</mxfile>
